<svg xmlns="http://www.w3.org/2000/svg" viewBox="0 0 16 16"><path fill="#D32F2F" d="M5.367 3.492c.734-.867 1.682-1.389 2.718-1.389 2.329 0 4.217 2.64 4.217 5.897s-1.888 5.898-4.217 5.898c-1.036 0-1.984-.523-2.718-1.389 1.148 1.49 2.854 2.435 4.759 2.435a5.772 5.772 0 0 0 3.206-.98A7.981 7.981 0 0 0 16 8a7.978 7.978 0 0 0-2.668-5.963 5.772 5.772 0 0 0-3.206-.98c-1.905-.001-3.612.945-4.759 2.435"/><path fill="#F44336" d="M8 0a8 8 0 1 0 5.331 13.964 5.772 5.772 0 0 1-3.206.98c-1.905 0-3.611-.945-4.759-2.435-.885-1.044-1.458-2.587-1.496-4.32v-.377c.039-1.732.612-3.276 1.496-4.32 1.148-1.49 2.854-2.435 4.759-2.435 1.172 0 2.268.358 3.206.98A7.967 7.967 0 0 0 8.03 0H8z"/></svg>