<svg xmlns="http://www.w3.org/2000/svg" viewBox="0 0 16 16"><path fill="#FF9800" d="M15.447 14.276l-2-4A.5.5 0 0 0 13 10H3a.5.5 0 0 0-.447.276l-2 4A.501.501 0 0 0 1 15h14c.173 0 .334-.09.426-.237a.502.502 0 0 0 .021-.487z"/><path fill="#FAFAFA" d="M12 10.5c0 1.46-3.59 1.5-4 1.5s-4-.04-4-1.5c0-.04.01-.09.02-.13l.69-2.53c.49.38 1.78.66 3.29.66s2.8-.28 3.29-.66l.69 2.53c.01.04.02.09.02.13zM10.56 5.18c-.63.2-1.55.32-2.56.32s-1.93-.12-2.56-.32l.77-2.82c.52.09 1.14.14 1.79.14s1.27-.05 1.79-.14l.77 2.82z"/><path fill="#FF9800" d="M8 2.5c-.65 0-1.27-.05-1.79-.14l.35-1.27C6.75.42 7.32 0 8 0s1.25.42 1.44 1.08l.35 1.28c-.52.09-1.14.14-1.79.14zM11.29 7.84c-.49.38-1.78.66-3.29.66s-2.8-.28-3.29-.66l.73-2.66c.63.2 1.55.32 2.56.32s1.93-.12 2.56-.32l.73 2.66z"/></svg>